<?xml version="1.0" ?><!DOCTYPE svg  PUBLIC '-//W3C//DTD SVG 1.1//EN'  'http://www.w3.org/Graphics/SVG/1.1/DTD/svg11.dtd'><svg enable-background="new 0 0 505 437.345" height="437.345px" id="Layer_1" version="1.1" viewBox="0 0 505 437.345" width="505px" xml:space="preserve" xmlns="http://www.w3.org/2000/svg" xmlns:xlink="http://www.w3.org/1999/xlink"><g><g><polygon fill="#199483" points="126.251,437.345 0,218.675 126.251,0 378.748,0 505,218.675 378.748,437.345   "/><polygon fill="#00645A" points="229.778,437.345 103.526,218.675 229.778,0 378.758,0 505,218.675 378.758,437.345   "/><polyline fill="#FFFFFF" opacity="0.2" points="124.956,0 251.203,218.675 124.956,437.345 0,218.545   "/></g><path d="M338.115,234.826c-9.761-11.896-25.308-20.427-46.665-25.576c11.286-2.582,21.598-9.021,30.926-19.337   c9.328-10.302,13.987-21.713,13.987-34.232c0-21.358-7.303-37.764-21.905-49.242c-12.888-10.125-30.47-15.772-52.72-16.958V51.766   h-25.677v37.702c-13.846,0.345-31.951,1.06-54.323,2.149v269.672h54.323v24.29h25.677v-24.386   c26.559-0.509,48.243-7.48,64.961-21.061c17.365-14.112,26.046-33.018,26.046-56.698   C352.745,262.936,347.87,246.731,338.115,234.826z M299.555,157.145c0,24.093-12.645,37.917-37.816,41.525v-78.387   C286.925,122.788,299.555,135.057,299.555,157.145z M218.552,121.07c5.415-0.475,11.286-0.811,17.51-1.022v79.472   c-6.588-0.168-12.481-0.47-17.51-0.955V121.07z M218.552,330.003V227.096l17.51-0.537v104.87   C231.035,331.116,225.212,330.646,218.552,330.003z M298.163,318.866c-8.307,6.771-20.489,10.854-36.425,12.327V226.746   c16.665,1.357,29.103,5.307,37.164,11.947c10.124,8.354,15.191,21.301,15.191,38.844   C314.094,296.434,308.787,310.205,298.163,318.866z" fill="#FFFFFF"/></g></svg>